<?xml version="1.0" encoding="UTF-8"?>
<svg version="1.1" xmlns="http://www.w3.org/2000/svg" width="32" height="32">
<path d="M0 0 C10.56 0 21.12 0 32 0 C32 10.56 32 21.12 32 32 C21.44 32 10.88 32 0 32 C0 21.44 0 10.88 0 0 Z " fill="#F9FBFA" transform="translate(0,0)"/>
<path d="M0 0 C1.9375 0.9375 1.9375 0.9375 3.25 2.5625 C4.21133682 5.88348174 3.58246692 8.58367202 2.9375 11.9375 C1.2875 12.5975 -0.3625 13.2575 -2.0625 13.9375 C-4.125 11.8125 -4.125 11.8125 -6.0625 8.9375 C-5.99658656 5.64182782 -5.59872696 3.72907314 -3.75 1 C-2.0625 -0.0625 -2.0625 -0.0625 0 0 Z " fill="#C3D4C9" transform="translate(17.0625,5.0625)"/>
<path d="M0 0 C5.94 0 11.88 0 18 0 C17.67 0.99 17.34 1.98 17 3 C11.39 3 5.78 3 0 3 C0 2.01 0 1.02 0 0 Z " fill="#A8C0B1" transform="translate(7,20)"/>
<path d="M0 0 C2.64 0 5.28 0 8 0 C7.67 1.65 7.34 3.3 7 5 C5.1875 5.6875 5.1875 5.6875 3 6 C1.25 4.75 1.25 4.75 0 3 C0 2.01 0 1.02 0 0 Z " fill="#307739" transform="translate(12,13)"/>
<path d="M0 0 C0.33 0.66 0.66 1.32 1 2 C1.99 2 2.98 2 4 2 C4.33 1.34 4.66 0.68 5 0 C5 1.32 5 2.64 5 4 C3.68 4.33 2.36 4.66 1 5 C0.67 3.35 0.34 1.7 0 0 Z " fill="#5D985D" transform="translate(14,14)"/>
</svg>
